<svg xmlns="http://www.w3.org/2000/svg" version="1.1" xmlns:xlink="http://www.w3.org/1999/xlink" xmlns:svgjs="http://svgjs.dev/svgjs" width="1500" height="1419" viewBox="0 0 1500 1419"><g transform="matrix(1,0,0,1,-1.9617311166297213,-2.2887096774194333)"><svg viewBox="0 0 262 248" data-background-color="#293040" preserveAspectRatio="xMidYMid meet" height="1419" width="1500" xmlns="http://www.w3.org/2000/svg" xmlns:xlink="http://www.w3.org/1999/xlink"><g id="tight-bounds" transform="matrix(1,0,0,1,0.3426490350379936,0.4000000000000057)"><svg viewBox="0 0 261.314701929924 247.2" height="247.2" width="261.314701929924"><g><svg viewBox="0 0 395.52 374.1563076164745" height="247.2" width="261.314701929924"><g transform="matrix(1,0,0,1,0,261.4296549015951)"><svg viewBox="0 0 395.52 112.72665271487944" height="112.72665271487944" width="395.52"><g id="textblocktransform"><svg viewBox="0 0 395.52 112.72665271487944" height="112.72665271487944" width="395.52" id="textblock"><g><rect width="75.54432" height="6.630664432836923" y="98.4899512117905" fill="#d5b263" data-fill-palette-color="tertiary"></rect><rect width="75.54432" height="6.630664432836923" y="98.4899512117905" x="319.97568" fill="#d5b263" data-fill-palette-color="tertiary"></rect></g><g><svg viewBox="0 0 395.52 73.52615384615385" height="73.52615384615385" width="395.52"><g transform="matrix(1,0,0,1,0,0)"><svg width="395.52" viewBox="2.6 -37.5 202.78 37.7" height="73.52615384615385" data-palette-color="#d5b263"><path d="M5.75-32.25L2.6-32.25 2.6-35 13-35Q19.15-35 22.13-32.9 25.1-30.8 25.1-24.98 25.1-19.15 22.03-16.38 18.95-13.6 13-13.6L13-13.6 9.15-13.6 9.15-2.75 12.7-2.75 12.7 0 2.6 0 2.6-2.75 5.75-2.75 5.75-32.25ZM12.75-32.25L12.75-32.25 9.15-32.25 9.15-16.35 12.75-16.35Q17.25-16.35 19.48-18.32 21.7-20.3 21.7-24.78 21.7-29.25 19.5-30.75 17.3-32.25 12.75-32.25ZM31.45-35L28.1-35 28.1-37.5 34.7-37.5 34.7-2.5 38.45-2.5 38.45 0 28.35 0 28.35-2.5 31.45-2.5 31.45-35ZM47.55 0.2L47.55 0.2Q40.9 0.2 40.5-5.05L40.5-5.05Q40.45-5.4 40.45-5.75L40.45-5.75Q40.45-9.95 45.5-11.35L45.5-11.35Q48.3-12.05 56.3-12.95L56.3-12.95 56.3-16.8Q56.3-22.25 50.6-22.25L50.6-22.25Q46.5-22.2 41.9-20.35L41.9-20.35 41.05-22.5 41.55-22.7Q45.45-24.4 47.5-24.75 49.55-25.1 50.5-25.13 51.45-25.15 52.32-25.1 53.2-25.05 54.6-24.65 56-24.25 57.02-23.53 58.05-22.8 58.8-21.35 59.55-19.9 59.55-17.9L59.55-17.9 59.55-2.5 63.4-2.5 63.4 0 56.8 0 56.3-1.9Q51.8 0.2 47.55 0.2ZM48.45-2.1L48.45-2.1Q52.25-2.1 56.3-3.8L56.3-3.8 56.3-10.95Q48.8-10.7 46.6-9.95L46.6-9.95Q44.9-9.5 44.2-8.33 43.5-7.15 43.5-6.45 43.5-5.75 43.5-5.5L43.5-5.5Q43.65-3.7 45.05-2.9 46.45-2.1 48.45-2.1ZM68.74-22.5L65.39-22.5 65.39-25 71.99-25 71.99-22.2Q76.09-25 79.84-25.15L79.84-25.15Q83.49-25.15 85.39-23.7L85.39-23.7Q86.24-23.05 86.92-21.68 87.59-20.3 87.59-18.4L87.59-18.4 87.59-2.5 91.44-2.5 91.44 0 81.34 0 81.34-2.5 84.34-2.5 84.34-17.15Q84.34-22 78.64-22L78.64-22Q75.54-21.9 71.99-19.95L71.99-19.95 71.99-2.5 75.74-2.5 75.74 0 65.64 0 65.64-2.5 68.74-2.5 68.74-22.5ZM115.09-32.25L111.84-32.25 111.84-35 122.59-35Q133.39-35 133.39-26.55L133.39-26.55Q133.39-23 130.69-18.9L130.69-18.9Q135.44-16.95 135.44-10.35L135.44-10.35Q135.44-4.45 132.46-2.23 129.49 0 123.34 0L123.34 0 111.84 0 111.84-2.75 115.09-2.75 115.09-32.25ZM124.34-17.15L124.34-17.15 118.49-17.15 118.49-2.75 123.09-2.75Q125.39-2.75 126.84-3 128.29-3.25 129.59-4L129.59-4Q132.04-5.35 132.04-10.15L132.04-10.15Q132.04-13.95 130.11-15.55 128.19-17.15 124.34-17.15ZM118.49-19.9L124.59-19.9Q126.44-19.9 127.79-19.7L127.79-19.7Q129.99-23.15 129.99-26.25L129.99-26.25Q129.99-32.25 122.34-32.25L122.34-32.25 118.49-32.25 118.49-19.9ZM140.84-11.2L140.84-11.2Q140.84-6.75 143.39-4.73 145.94-2.7 149.34-2.7L149.34-2.7Q151.54-2.7 153.86-3.13 156.19-3.55 156.94-3.9L156.94-3.9 157.59-1.55Q156.44-0.8 153.81-0.3 151.19 0.2 149.01 0.2 146.84 0.2 145.11-0.25 143.39-0.7 141.59-1.85 139.79-3 138.74-5.45 137.69-7.9 137.69-11.45L137.69-11.45Q137.69-18.05 141.09-21.55L141.09-21.55Q144.64-25.2 149.34-25.2 154.04-25.2 156.51-22.6 158.99-20 158.99-15.3L158.99-15.3Q158.99-14.3 158.84-13.15L158.84-13.15 140.99-13.15Q140.84-12.1 140.84-11.2ZM155.99-15.65L155.99-15.65Q155.99-18.75 154.14-20.43 152.29-22.1 149.84-22.1L149.84-22.1Q146.49-22.1 144.29-20.08 142.09-18.05 141.34-15.1L141.34-15.1 155.99-15.1Q155.99-15.4 155.99-15.65ZM169.83 0.2L169.83 0.2Q163.18 0.2 162.78-5.05L162.78-5.05Q162.73-5.4 162.73-5.75L162.73-5.75Q162.73-9.95 167.78-11.35L167.78-11.35Q170.58-12.05 178.58-12.95L178.58-12.95 178.58-16.8Q178.58-22.25 172.88-22.25L172.88-22.25Q168.78-22.2 164.18-20.35L164.18-20.35 163.33-22.5 163.83-22.7Q167.73-24.4 169.78-24.75 171.83-25.1 172.78-25.13 173.73-25.15 174.61-25.1 175.48-25.05 176.88-24.65 178.28-24.25 179.31-23.53 180.33-22.8 181.08-21.35 181.83-19.9 181.83-17.9L181.83-17.9 181.83-2.5 185.68-2.5 185.68 0 179.08 0 178.58-1.9Q174.08 0.2 169.83 0.2ZM170.73-2.1L170.73-2.1Q174.53-2.1 178.58-3.8L178.58-3.8 178.58-10.95Q171.08-10.7 168.88-9.95L168.88-9.95Q167.18-9.5 166.48-8.33 165.78-7.15 165.78-6.45 165.78-5.75 165.78-5.5L165.78-5.5Q165.93-3.7 167.33-2.9 168.73-2.1 170.73-2.1ZM194.23-16.75L194.23-2.5 198.38-2.5 198.38 0 187.88 0 187.88-2.5 190.98-2.5 190.98-22.5 187.63-22.5 187.63-25 194.23-25 194.23-18.95Q198.18-24.75 201.98-24.85L201.98-24.85Q202.28-24.85 202.58-24.85L202.58-24.85 205.38-24.5 204.08-21.5Q203.13-21.95 201.63-21.95L201.63-21.95Q198.03-21.9 194.23-16.75L194.23-16.75Z" opacity="1" transform="matrix(1,0,0,1,0,0)" fill="#d5b263" class="wordmark-text-0" data-fill-palette-color="primary" id="text-0"></path></svg></g></svg></g><g transform="matrix(1,0,0,1,75.54432,90.88391414153847)"><svg viewBox="0 0 244.43135999999998 21.842738573340977" height="21.842738573340977" width="244.43135999999998"><g transform="matrix(1,0,0,1,8,0)"><svg width="228.43135999999998" viewBox="1 -37.5 522.85 50" height="21.842738573340977" data-palette-color="#d5b263"><path d="M11.35-1.65L11.35-34 2.75-34 1.95-27.4 1-27.8 1.5-34 1.45-34 1.55-34.4 1.6-35 1.7-34.95 1.7-35 24.4-35 25.05-27.8 24.05-27.4 23.25-34 14.5-34 14.5-0.95 18.15-0.75Q18.15-0.7 18.1 0L18.1 0 8.1 0.05Q8.1-0.4 8.15-0.65L8.15-0.65 10.75-1Q11.25-1.05 11.35-1.65L11.35-1.65ZM34.15-35.45L34.15-35.45 34.15-21.9Q40.7-26.4 46-24.7L46-24.7Q47.2-24.35 48.07-23.68 48.95-23 49.6-21.65 50.25-20.3 50.25-18.4L50.25-18.4 50.25-1 54-0.75Q54-0.7 53.95 0L53.95 0 43.95 0.05Q43.95-0.4 44-0.65L44-0.65 46.6-1Q46.9-1 47-1.45L47-1.45 47-17.1Q47-19.05 46.47-20.48 45.95-21.9 45.25-22.55 44.55-23.2 43.6-23.55L43.6-23.55Q42.3-24.05 41.3-23.95L41.3-23.95Q38.05-23.85 34.15-21.3L34.15-21.3 34.15-1 37.9-0.75Q37.9-0.7 37.85 0L37.85 0 27.85 0.05Q27.85-0.4 27.9-0.65L27.9-0.65 30.5-1Q30.9-1.05 30.9-1.7L30.9-1.7 30.9-35.7Q30.9-36.25 30.6-36.25L30.6-36.25 27.6-36.35 27.65-37.05Q30.35-37.5 31.75-37.5 33.15-37.5 33.65-36.85 34.15-36.2 34.15-35.45ZM58.5-11.5L58.5-11.5Q58.5-0.7 66.9-0.7L66.9-0.7Q69.09-0.7 71.59-1.18 74.09-1.65 74.8-2.05L74.8-2.05 75.15-1.55Q74-0.8 71.37-0.3 68.75 0.2 66.57 0.2 64.4 0.2 62.67-0.25 60.95-0.7 59.15-1.85 57.35-3 56.3-5.45 55.25-7.9 55.25-11.45L55.25-11.45Q55.25-18.05 58.65-21.55L58.65-21.55Q62.2-25.2 66.9-25.2 71.59-25.2 74.07-22.6 76.55-20 76.55-15.3L76.55-15.3Q76.55-14.3 76.4-13.15L76.4-13.15 58.55-13.15Q58.5-12.6 58.5-11.5ZM73.59-15.65L73.59-15.65Q73.59-19.4 71.95-21.78 70.3-24.15 67.45-24.15L67.45-24.15Q63.75-24.15 61.2-20.9L61.2-20.9Q59.15-18.35 58.65-14.1L58.65-14.1 73.55-14.1Q73.59-14.65 73.59-15.65ZM86.34-22.95L86.34-22.95 86.34-18.95Q90.29-24.75 94.09-24.85L94.09-24.85Q94.39-24.85 94.69-24.85L94.69-24.85 97.49-24.5 96.19-21.5Q95.24-22.45 93.74-22.45L93.74-22.45Q90.09-22.4 86.34-17.6L86.34-17.6 86.34-1 90.59-0.75Q90.59-0.7 90.54 0L90.54 0 80.04 0.05Q80.04-0.4 80.09-0.65L80.09-0.65 82.69-1Q83.09-1.05 83.09-1.7L83.09-1.7 83.09-23.4Q82.99-23.75 82.79-23.75L82.79-23.75 79.79-23.85 79.84-24.55Q82.54-25 83.94-25 85.34-25 85.84-24.35 86.34-23.7 86.34-22.95ZM102.29-11.5L102.29-11.5Q102.29-0.7 110.69-0.7L110.69-0.7Q112.89-0.7 115.39-1.18 117.89-1.65 118.59-2.05L118.59-2.05 118.94-1.55Q117.79-0.8 115.17-0.3 112.54 0.2 110.37 0.2 108.19 0.2 106.47-0.25 104.74-0.7 102.94-1.85 101.14-3 100.09-5.45 99.04-7.9 99.04-11.45L99.04-11.45Q99.04-18.05 102.44-21.55L102.44-21.55Q105.99-25.2 110.69-25.2 115.39-25.2 117.87-22.6 120.34-20 120.34-15.3L120.34-15.3Q120.34-14.3 120.19-13.15L120.19-13.15 102.34-13.15Q102.29-12.6 102.29-11.5ZM117.39-15.65L117.39-15.65Q117.39-19.4 115.74-21.78 114.09-24.15 111.24-24.15L111.24-24.15Q107.54-24.15 104.99-20.9L104.99-20.9Q102.94-18.35 102.44-14.1L102.44-14.1 117.34-14.1Q117.39-14.65 117.39-15.65ZM125.79-28.65L125.79-29.35 125.84-33.05Q125.84-35.1 125.79-35.75L125.79-35.75 125.29-35.75 126.99-35.9Q126.99-34.95 126.94-33.85 126.89-32.75 126.86-31.9 126.84-31.05 126.79-30.33 126.74-29.6 126.69-28.75L126.69-28.75 125.79-28.65ZM141.19-0.6L141.19-0.6Q141.49-0.6 141.78-0.65L141.78-0.65Q144.39-0.7 146.14-2.27 147.89-3.85 147.89-6.9L147.89-6.9Q147.89-9.9 143.19-11.25L143.19-11.25Q141.24-11.8 139.28-12.45 137.34-13.1 135.96-14.5 134.59-15.9 134.59-18.15L134.59-18.15Q134.59-21.35 137.03-23.28 139.49-25.2 143.24-25.2L143.24-25.2Q146.03-25.2 148.89-24.2L148.89-24.2 149.78-23.85 149.78-18.1 148.84-17.75 148.64-22Q145.74-24.3 143.78-24.3L143.78-24.3Q141.03-24.3 139.44-22.68 137.84-21.05 137.84-18.35L137.84-18.35Q137.84-16.8 139.21-15.85 140.59-14.9 142.53-14.35 144.49-13.8 146.44-13.13 148.39-12.45 149.76-10.93 151.14-9.4 151.14-6.95L151.14-6.95Q151.14-3.65 148.66-1.73 146.19 0.2 141.64 0.2 137.09 0.2 134.09-1.95L134.09-1.95 134.09-7.7 134.99-8.05 135.24-3.8Q135.94-2.5 137.76-1.55 139.59-0.6 141.19-0.6ZM178.88 0L168.83 0.05 168.88-0.65 171.48-1Q171.83-1.05 172.08-1.65L172.08-1.65 182.88-35 186.18-35 197.68-0.95 201.13-0.75Q201.13-0.7 201.08 0L201.08 0 191.08 0.05Q191.08-0.4 191.13-0.65L191.13-0.65 193.73-1Q194.13-1.05 194.13-1.6L194.13-1.6 191.38-9.75 175.78-9.75 173.13-1.05 178.93-0.75Q178.93-0.7 178.88 0L178.88 0ZM191.03-10.75L183.23-34.05 176.08-10.75 191.03-10.75ZM213.18 0L203.13 0.05 203.18-0.65 205.78-1Q206.13-1.05 206.23-1.5L206.23-1.5 206.23-35.7Q206.23-36.25 205.93-36.25L205.93-36.25 202.88-36.35 202.93-37.05Q206.08-37.5 207.25-37.5 208.43-37.5 208.95-36.85 209.48-36.2 209.48-35.45L209.48-35.45 209.48-1 213.23-0.75Q213.23-0.7 213.18 0L213.18 0ZM247.53-24.95L257.53-25Q257.53-24.95 257.58-24.25L257.58-24.25 254.68-23.95 252.88-23.55 243.93 0 240.93 0 235.08-19.8 228.33 0 225.33 0 217.53-23.35Q217.23-23.9 216.78-23.95L216.78-23.95 214.18-24.2Q214.13-24.5 214.13-24.95L214.13-24.95 224.63-25Q224.63-24.95 224.68-24.25L224.68-24.25 221.08-24 227.83-1.6 235.13-24.75 236.83-25 243.18-0.8 251.03-23.2Q251.18-23.5 250.88-23.7 250.58-23.9 250.18-23.95L250.18-23.95 247.58-24.2Q247.53-24.5 247.53-24.95L247.53-24.95ZM273.97-1.9L273.97-1.9 273.82-1.9Q269.32 0.2 265.07 0.2L265.07 0.2Q258.42 0.2 258.02-5.05L258.02-5.05Q257.97-5.4 257.97-5.7L257.97-5.7Q257.97-9.55 263.02-10.85L263.02-10.85Q266.02-11.5 273.82-12.4L273.82-12.4 273.82-16.8Q273.82-18.9 273.32-20.4 272.82-21.9 272.22-22.63 271.62-23.35 270.67-23.75L270.67-23.75Q269.47-24.25 268-24.25 266.52-24.25 264.62-23.5L264.62-23.5Q261.87-22.35 259.72-20.6L259.72-20.6 259.52-16.7 258.57-16.45 258.57-22.5 259.07-22.7Q262.97-24.4 265.02-24.75 267.07-25.1 268.02-25.13 268.97-25.15 269.85-25.1 270.72-25.05 272.12-24.65 273.52-24.25 274.55-23.53 275.57-22.8 276.32-21.35 277.07-19.9 277.07-17.9L277.07-17.9 277.07-2.6Q277.07-1.05 277.87-1.05L277.87-1.05 280.92-0.9 280.87-0.15Q278.07 0.25 275.87 0.25L275.87 0.25Q275.27 0.2 274.62-0.38 273.97-0.95 273.97-1.9ZM265.97-0.6L265.97-0.6Q269.67-0.6 273.82-3.2L273.82-3.2 273.82-11.45Q266.32-11.2 264.4-10.58 262.47-9.95 261.75-8.63 261.02-7.3 261.02-6L261.02-6Q261.02-5.75 261.02-5.5L261.02-5.5Q261.17-2.9 262.57-1.75 263.97-0.6 265.97-0.6ZM297.82 12.45L287.27 12.5 287.17 11.8 291.82 11.2Q292.17 11.15 292.27 10.5L292.27 10.5 293.92 0 292.27 0 283.92-23.25 283.87-23.3Q283.62-23.9 283.07-24L283.07-24 280.82-24.2Q280.77-24.5 280.77-24.95L280.77-24.95 291.27-25Q291.27-24.95 291.32-24.25L291.32-24.25 287.42-23.95 294.82-1.3 304.12-23.3Q304.27-23.6 303.95-23.8 303.62-24 303.27-24.05L303.27-24.05 301.07-24.2Q301.02-24.5 301.02-24.95L301.02-24.95 310.17-25Q310.17-24.95 310.22-24.25L310.22-24.25 305.77-23.8 295.27 0 293.37 11.45 297.72 11.7Q297.82 12.4 297.82 12.45L297.82 12.45ZM318.62-0.6L318.62-0.6Q318.92-0.6 319.22-0.65L319.22-0.65Q321.82-0.7 323.57-2.27 325.32-3.85 325.32-6.9L325.32-6.9Q325.32-9.9 320.62-11.25L320.62-11.25Q318.67-11.8 316.72-12.45 314.77-13.1 313.39-14.5 312.02-15.9 312.02-18.15L312.02-18.15Q312.02-21.35 314.47-23.28 316.92-25.2 320.67-25.2L320.67-25.2Q323.47-25.2 326.32-24.2L326.32-24.2 327.22-23.85 327.22-18.1 326.27-17.75 326.07-22Q323.17-24.3 321.22-24.3L321.22-24.3Q318.47-24.3 316.87-22.68 315.27-21.05 315.27-18.35L315.27-18.35Q315.27-16.8 316.64-15.85 318.02-14.9 319.97-14.35 321.92-13.8 323.87-13.13 325.82-12.45 327.19-10.93 328.57-9.4 328.57-6.95L328.57-6.95Q328.57-3.65 326.09-1.73 323.62 0.2 319.07 0.2 314.52 0.2 311.52-1.95L311.52-1.95 311.52-7.7 312.42-8.05 312.67-3.8Q313.37-2.5 315.19-1.55 317.02-0.6 318.62-0.6ZM363.51-1.9L363.51-1.9 363.36-1.9Q358.86 0.2 354.61 0.2L354.61 0.2Q347.96 0.2 347.56-5.05L347.56-5.05Q347.51-5.4 347.51-5.7L347.51-5.7Q347.51-9.55 352.56-10.85L352.56-10.85Q355.56-11.5 363.36-12.4L363.36-12.4 363.36-16.8Q363.36-18.9 362.86-20.4 362.36-21.9 361.76-22.63 361.16-23.35 360.21-23.75L360.21-23.75Q359.01-24.25 357.54-24.25 356.06-24.25 354.16-23.5L354.16-23.5Q351.41-22.35 349.26-20.6L349.26-20.6 349.06-16.7 348.11-16.45 348.11-22.5 348.61-22.7Q352.51-24.4 354.56-24.75 356.61-25.1 357.56-25.13 358.51-25.15 359.39-25.1 360.26-25.05 361.66-24.65 363.06-24.25 364.09-23.53 365.11-22.8 365.86-21.35 366.61-19.9 366.61-17.9L366.61-17.9 366.61-2.6Q366.61-1.05 367.41-1.05L367.41-1.05 370.46-0.9 370.41-0.15Q367.61 0.25 365.41 0.25L365.41 0.25Q364.81 0.2 364.16-0.38 363.51-0.95 363.51-1.9ZM355.51-0.6L355.51-0.6Q359.21-0.6 363.36-3.2L363.36-3.2 363.36-11.45Q355.86-11.2 353.94-10.58 352.01-9.95 351.29-8.63 350.56-7.3 350.56-6L350.56-6Q350.56-5.75 350.56-5.5L350.56-5.5Q350.71-2.9 352.11-1.75 353.51-0.6 355.51-0.6ZM389.91-34.4L389.91-34.4 390.01-35 400.41-35Q406.56-35 409.53-32.9 412.51-30.8 412.51-24.98 412.51-19.15 409.43-16.38 406.36-13.6 400.41-13.6L400.41-13.6 396.56-13.6 396.56-0.95 400.01-0.75Q400.01-0.7 399.96 0L399.96 0 389.96 0.05Q389.96-0.4 390.01-0.65L390.01-0.65 392.61-1Q392.96-1.05 393.16-1.45L393.16-1.45 393.16-33.45Q392.96-33.9 392.61-33.95L392.61-33.95 389.96-34.25Q389.91-34.3 389.91-34.4ZM400.16-34.25L400.16-34.25 396.56-34.25 396.56-14.35 400.16-14.35Q404.66-14.35 406.88-16.75 409.11-19.15 409.11-24.78 409.11-30.4 406.91-32.33 404.71-34.25 400.16-34.25ZM425.81 0L415.76 0.05 415.81-0.65 418.41-1Q418.76-1.05 418.86-1.5L418.86-1.5 418.86-35.7Q418.86-36.25 418.56-36.25L418.56-36.25 415.51-36.35 415.56-37.05Q418.71-37.5 419.88-37.5 421.06-37.5 421.58-36.85 422.11-36.2 422.11-35.45L422.11-35.45 422.11-1 425.86-0.75Q425.86-0.7 425.81 0L425.81 0ZM445.35-1.9L445.35-1.9 445.2-1.9Q440.7 0.2 436.45 0.2L436.45 0.2Q429.8 0.2 429.4-5.05L429.4-5.05Q429.35-5.4 429.35-5.7L429.35-5.7Q429.35-9.55 434.4-10.85L434.4-10.85Q437.4-11.5 445.2-12.4L445.2-12.4 445.2-16.8Q445.2-18.9 444.7-20.4 444.2-21.9 443.6-22.63 443-23.35 442.05-23.75L442.05-23.75Q440.85-24.25 439.38-24.25 437.9-24.25 436-23.5L436-23.5Q433.25-22.35 431.1-20.6L431.1-20.6 430.9-16.7 429.95-16.45 429.95-22.5 430.45-22.7Q434.35-24.4 436.4-24.75 438.45-25.1 439.4-25.13 440.35-25.15 441.23-25.1 442.1-25.05 443.5-24.65 444.9-24.25 445.93-23.53 446.95-22.8 447.7-21.35 448.45-19.9 448.45-17.9L448.45-17.9 448.45-2.6Q448.45-1.05 449.25-1.05L449.25-1.05 452.3-0.9 452.25-0.15Q449.45 0.25 447.25 0.25L447.25 0.25Q446.65 0.2 446-0.38 445.35-0.95 445.35-1.9ZM437.35-0.6L437.35-0.6Q441.05-0.6 445.2-3.2L445.2-3.2 445.2-11.45Q437.7-11.2 435.78-10.58 433.85-9.95 433.13-8.63 432.4-7.3 432.4-6L432.4-6Q432.4-5.75 432.4-5.5L432.4-5.5Q432.55-2.9 433.95-1.75 435.35-0.6 437.35-0.6ZM464.1 0L454.05 0.05 454.1-0.65 456.7-1Q457.15-1.05 457.15-1.7L457.15-1.7 457.15-23.35Q457.05-23.75 456.85-23.75L456.85-23.75 453.8-23.85 453.85-24.55Q457-25 458.1-25L458.1-25Q460.1-25 460.35-23.25L460.35-23.25 460.4-23.25 460.4-22.2Q464.5-25 468.25-25.15L468.25-25.15Q471.9-25.15 473.8-23.7L473.8-23.7Q474.65-23.05 475.33-21.68 476-20.3 476-18.4L476-18.4 476-1 479.75-0.75Q479.75-0.7 479.7 0L479.7 0 469.7 0.05Q469.7-0.4 469.75-0.65L469.75-0.65 472.35-1Q472.75-1.05 472.75-1.7L472.75-1.7 472.75-17.15Q472.75-19.15 472.23-20.55 471.7-21.95 471.05-22.6 470.4-23.25 469.45-23.6L469.45-23.6Q468.35-24 467.15-24L467.15-24Q464.15-23.95 460.4-21.65L460.4-21.65 460.4-1 464.15-0.75Q464.15-0.7 464.1 0L464.1 0ZM502.9-33.95L500.25-34.25 500.3-35 511-35Q521.8-35 521.8-26.55L521.8-26.55Q521.8-23.3 517.5-19.45L517.5-19.45Q523.85-17.9 523.85-10.35L523.85-10.35Q523.85-4.45 520.87-2.23 517.9 0 511.75 0L511.75 0 510.3 0 500.25 0.05 500.3-0.65 502.9-1Q503.4-1.05 503.5-1.65L503.5-1.65 503.5-33.25Q503.4-33.9 502.9-33.95L502.9-33.95ZM512.75-19.15L512.75-19.15 506.9-19.15 506.9-0.75 511.5-0.75Q520.45-0.75 520.45-10.15L520.45-10.15Q520.45-14.95 518.52-17.05 516.6-19.15 512.75-19.15ZM506.9-19.9L513-19.9Q514.85-19.9 516.2-19.7L516.2-19.7Q518.4-23.15 518.4-26.25L518.4-26.25Q518.4-34.25 510.75-34.25L510.75-34.25 506.9-34.25 506.9-19.9Z" opacity="1" transform="matrix(1,0,0,1,0,0)" fill="#d5b263" class="slogan-text-1" data-fill-palette-color="secondary" id="text-1"></path></svg></g></svg></g></svg></g></svg></g><g transform="matrix(1,0,0,1,84.40293284458707,0)"><svg viewBox="0 0 226.71413431082584 226.71413431082584" height="226.71413431082584" width="226.71413431082584"><g><svg></svg></g><g id="icon-0"><svg viewBox="0 0 226.71413431082584 226.71413431082584" height="226.71413431082584" width="226.71413431082584"><g><path d="M0 113.357c0-62.605 50.752-113.357 113.357-113.357 62.605 0 113.357 50.752 113.357 113.357 0 62.605-50.752 113.357-113.357 113.357-62.605 0-113.357-50.752-113.357-113.357zM113.357 220.083c58.943 0 106.726-47.783 106.726-106.726 0-58.943-47.783-106.726-106.726-106.726-58.943 0-106.726 47.783-106.726 106.726 0 58.943 47.783 106.726 106.726 106.726z" data-fill-palette-color="tertiary" fill="#d5b263" stroke="transparent"></path></g><g transform="matrix(1,0,0,1,48.32411433330245,68.82723663599302)"><svg viewBox="0 0 130.06590564422095 89.05966103883979" height="89.05966103883979" width="130.06590564422095"><g><svg xmlns="http://www.w3.org/2000/svg" xmlns:xlink="http://www.w3.org/1999/xlink" version="1.1" x="0" y="0" viewBox="4.093 18.565 91.81613007016058 62.869" enable-background="new 0 0 100 100" xml:space="preserve" height="89.05966103883979" width="130.06590564422095" class="icon-dxe-0" data-fill-palette-color="accent" id="dxe-0"><path fill="#c9ad8b" d="M26.856 81.434L25.878 81.426C25.727 81.424 22.117 81.372 18.467 79.53 15.037 77.801 10.951 74.134 10.951 66.489V48.45H4.093V47.48C4.093 40.023 9.036 38.342 11.103 37.966 11.265 36.628 11.835 33.929 13.852 31.227 16.376 27.847 21.743 23.816 32.976 23.816H66.362C66.824 21.621 68.504 18.565 72.607 18.565 76.733 18.565 78.386 21.629 78.821 23.811 79.867 23.899 81.738 24.159 83.624 24.929 87.155 26.369 89.161 28.923 89.476 32.35H95.907L95.909 33.317C95.912 33.572 95.891 39.604 92.63 42.875 91.276 44.234 89.568 44.923 87.56 44.923 81.413 44.923 78.843 46.688 78.843 57.624V81.432L77.863 81.424C77.71 81.422 74.068 81.37 70.381 79.53 67.11 77.897 63.241 74.539 62.823 67.727 57.026 69.144 50.969 69.861 44.797 69.861H44.794C36.054 69.861 29.496 68.442 26.859 67.763V81.434z" data-fill-palette-color="accent"></path></svg></g></svg></g></svg></g></svg></g><g></g></svg></g><defs></defs></svg><rect width="261.314701929924" height="247.2" fill="none" stroke="none" visibility="hidden"></rect></g></svg></g></svg>